Raaz 3 2012 DVDRip x264 AAC - ViZNU [P2PDL]
 
http://www.imdb.com/title/tt2140315/
The film director must save his love from the black magic of a wicked woman who has become blind in
love, lust and passion.

General
Movie name                     : Raaz 3
Format                         : MPEG-4
Format profile                 : Base Media
Codec ID                       : isom
File size                      : 502 MiB
Duration                       : 2h 20mn
Overall bit rate mode          : Variable
Overall bit rate               : 501 Kbps
Source                         : DVD9 NTSC

Video
ID                             : 1
Format                         : AVC
Format/Info                    : Advanced Video Codec
Duration                       : 2h 20mn
Bit rate                       : 465 Kbps
Maximum bit rate               : 4 214 Kbps
Width                          : 608 pixels
Height                         : 256 pixels
Display aspect ratio           : 2.40:1
Frame rate mode                : Constant
Frame rate                     : 23.976 fps
Stream size                    : 466 MiB (93%)
Writing library                : x264 core 129

Audio
ID                             : 2
Format                         : AAC
Format/Info                    : Advanced Audio Codec
Format profile                 : LC
Codec ID                       : 40
Duration                       : 2h 20mn
Bit rate mode                  : Variable
Bit rate                       : 32.0 Kbps
Channel(s)                     : 2 channels
Channel positions              : Front: L R
Sampling rate                  : 44.1 KHz
Compression mode               : Lossy
Stream size                    : 32.1 MiB (6%)
Language                       : Hindi

Subtitle                       : N/a


Screens:
 
http://www.shotpix.com/images/22786711379245090092.png 
http://www.shotpix.com/images/30461705078072167050.png 
http://www.shotpix.com/images/04942160053894825427.png 
http://www.shotpix.com/images/88738763067581699964.png 
http://www.shotpix.com/images/37069764197634767671.png 
http://www.shotpix.com/images/42638467379273083569.png



----------------------------------------------------------------------------------------------------


Recommend to you to use latest version of VLC player. Install K-Lite Codec Pack or shark007 codecs
in case of any kind of problem in playback (For non-VLC Media Player users). Alternatively, install
Core AVC codecs, the fastest decoder that there is coupled with Community Center Codec Pack and play
on Windows Media Player Classic. Check sample to be sure.
Enjoy!

Greets to: Vitamin_X, a2zRG, srkfan, staff members at ExtraTorrent, TPB,KAT, 1337x, PublicHD, Ahashare,
BTScene, SilverTorrent, TorrentMafia, P2PDL, and all others.

Encoder Notes: Looking For Early Access To Anything You Can Provide DVDScr, R5, DVDR, BluRay, Direct
Audio, Early Music Releases, Seedboxes, Dedicated Servers anything u can provide, Advance / Promo CDs/
DVDs. If You Got anything to offer contact me at "prg@hush.com".

Facebook Fan Page: www . facebook . com / p2pdl